<?xml version="1.0" standalone="no"?>
<!DOCTYPE svg PUBLIC "-//W3C//DTD SVG 20010904//EN"
 "http://www.w3.org/TR/2001/REC-SVG-20010904/DTD/svg10.dtd">
<svg version="1.0" xmlns="http://www.w3.org/2000/svg"
 width="1280.000000pt" height="640.000000pt" viewBox="0 0 1280.000000 640.000000"
 preserveAspectRatio="xMidYMid meet">
<metadata>
Created by potrace 1.15, written by Peter Selinger 2001-2017
</metadata>
<g transform="translate(0.000000,640.000000) scale(0.100000,-0.100000)"
fill="#000000" stroke="none">
<path d="M2923 5966 c-148 -48 -362 -221 -474 -383 -96 -140 -165 -323 -157
-419 9 -102 13 -105 464 -315 219 -102 1227 -572 2239 -1044 2243 -1046 2148
-1002 2214 -1015 29 -5 87 -10 127 -10 85 0 138 17 313 104 63 31 124 56 137
56 13 0 45 -7 71 -16 48 -16 1237 -644 1231 -650 -10 -10 -858 -71 -1293 -94
-1108 -57 -2358 -57 -3360 0 -1000 58 -1799 147 -3198 360 -220 33 -418 60
-441 60 -100 0 -265 -61 -366 -135 -62 -46 -155 -145 -203 -218 -147 -221
-186 -518 -102 -760 85 -241 299 -454 525 -521 65 -20 601 -93 990 -135 1824
-200 3742 -164 5700 105 893 122 1950 326 2888 554 112 28 211 50 220 50 9 0
31 -9 48 -19 77 -47 447 -237 624 -321 557 -264 964 -394 1343 -429 114 -11
148 -4 194 41 43 42 57 92 42 153 -15 59 -58 97 -146 125 -140 47 -440 173
-626 264 -230 112 -430 227 -627 359 -203 136 -186 119 -167 164 94 220 -2
471 -208 544 -89 31 -163 34 -321 10 -78 -12 -155 -21 -172 -21 -20 0 -482
236 -1423 726 -1236 643 -1460 756 -1974 996 -319 149 -1109 517 -1755 818
-646 301 -1404 655 -1684 785 -460 214 -516 238 -570 241 -35 2 -79 -2 -103
-10z"/>
</g>
</svg>
